<svg xmlns="http://www.w3.org/2000/svg" viewBox="0 0 512 512"><title>Artboard 3</title><path d="M251,28.16c2.75-4.76,7.25-4.76,10,0L466.35,383.84c2.75,4.76.5,8.66-5,8.66H50.65c-5.5,0-7.75-3.9-5-8.66Z" style="fill:none;stroke:#ff1d25;stroke-miterlimit:10;stroke-width:40px"/><path d="M291.3,175.33c0,11.45-2.86,29.89-16.54,67.42l-9.22,25.12H246.46l-9.22-25.12c-14-37.84-16.54-56-16.54-67.42,0-21.94,13.68-34,35.3-34C277.31,141.31,291.3,153.39,291.3,175.33Zm-68.69,148.5a33.39,33.39,0,0,1,66.78,0c0,18.45-14.63,32.76-33.39,32.76S222.61,342.28,222.61,323.83Z"/></svg>