<svg xmlns="http://www.w3.org/2000/svg" viewBox="0 0 512 512"><title>Artboard 3</title><path d="M251,64.66c2.75-4.76,7.25-4.76,10,0L424.21,347.34c2.75,4.76.5,8.66-5,8.66H92.79c-5.5,0-7.75-3.9-5-8.66Z" style="fill:none;stroke:#ff1d25;stroke-miterlimit:10;stroke-width:24px"/><path d="M285.31,175.74c0,9.5-2.38,24.82-13.73,56l-7.66,20.86H248.08l-7.65-20.86c-11.62-31.42-13.73-46.47-13.73-56,0-18.22,11.35-28.25,29.3-28.25C273.69,147.49,285.31,157.52,285.31,175.74ZM228.28,299a27.72,27.72,0,0,1,55.44,0c0,15.31-12.14,27.19-27.72,27.19S228.28,314.34,228.28,299Z"/></svg>