<svg width="201" height="36" viewBox="0 0 201 36" xmlns="http://www.w3.org/2000/svg"><defs><linearGradient x1="71.163%" y1="8.38%" x2="23.631%" y2="89.075%" id="a"><stop stop-color="#FF980E" offset="0%"/><stop stop-color="#FF7139" offset="20.75%"/><stop stop-color="#FF5854" offset="36.33%"/><stop stop-color="#FF4F5E" offset="45.63%"/><stop stop-color="#FF3750" offset="69.29%"/><stop stop-color="#F92261" offset="85.75%"/><stop stop-color="#F5156C" offset="100%"/></linearGradient><linearGradient x1="71.163%" y1="8.38%" x2="23.631%" y2="89.075%" id="b"><stop stop-color="#FFF44F" stop-opacity=".8" offset="0%"/><stop stop-color="#FFF44F" stop-opacity="0" offset="75%"/></linearGradient><linearGradient x1="14.395%" y1="105.534%" x2="62.862%" y2="24.329%" id="c"><stop stop-color="#3A8EE6" offset="0%"/><stop stop-color="#5C79F0" offset="23.59%"/><stop stop-color="#9059FF" offset="62.93%"/><stop stop-color="#C139E6" offset="100%"/></linearGradient><linearGradient x1="62.871%" y1="29.023%" x2="42.537%" y2="60.743%" id="d"><stop stop-color="#6E008B" stop-opacity=".5" offset="0%"/><stop stop-color="#C846CB" stop-opacity="0" offset="50%"/></linearGradient><linearGradient x1="73.763%" y1="58.151%" x2="20.913%" y2="45.448%" id="e"><stop stop-color="#6A2BEA" stop-opacity="0" offset="13.6%"/><stop stop-color="#662CE6" stop-opacity=".095" offset="29.95%"/><stop stop-color="#592FDB" stop-opacity=".193" offset="46.89%"/><stop stop-color="#4534C9" stop-opacity=".292" offset="64.1%"/><stop stop-color="#283BAF" stop-opacity=".393" offset="81.5%"/><stop stop-color="#03448D" stop-opacity=".494" offset="98.9%"/><stop stop-color="#00458B" stop-opacity=".5" offset="100%"/></linearGradient></defs><g fill="none" fill-rule="evenodd"><path d="M18.48.31C8.485.31.35 8.284.35 18.077a1.9 1.9 0 0 0 1.898 1.897h14.335v9.445l-4.456-4.413c-.736-.735-1.937-.735-2.712 0-.736.736-.736 1.936 0 2.71l7.71 7.703c.039.04.078.078.155.116h.039c.039.04.077.078.116.078h.039c.039.039.077.039.116.077h.039c.039.039.116.039.155.078.039.038.116.038.155.038.039 0 .116.04.155.04h.038c.04 0 .078 0 .155.038h.388c.039 0 .077 0 .155-.039h.039c.038 0 .116-.039.155-.039a.294.294 0 0 0 .155-.077c.038-.039.116-.039.155-.077.038-.04.077-.04.116-.078h.038c.04-.039.078-.077.117-.077h.038c.04-.039.078-.078.155-.116l7.71-7.704c.736-.735.736-1.935 0-2.71-.736-.735-1.937-.735-2.712 0L20.38 29.42v-9.406h14.334a1.9 1.9 0 0 0 1.899-1.897C36.612 8.284 28.476.31 18.48.31zM4.262 16.18C5.23 9.407 11.235 4.143 18.48 4.143S31.691 9.406 32.66 16.18H4.262z" fill="url(#a)" fill-rule="nonzero"/><path d="M18.48.31C8.485.31.35 8.284.35 18.077a1.9 1.9 0 0 0 1.898 1.897h14.335v9.445l-4.456-4.413c-.736-.735-1.937-.735-2.712 0-.736.736-.736 1.936 0 2.71l7.71 7.703c.039.04.078.078.155.116h.039c.039.04.077.078.116.078h.039c.039.039.077.039.116.077h.039c.039.039.116.039.155.078.039.038.116.038.155.038.039 0 .116.04.155.04h.038c.04 0 .078 0 .155.038h.388c.039 0 .077 0 .155-.039h.039c.038 0 .116-.039.155-.039a.294.294 0 0 0 .155-.077c.038-.039.116-.039.155-.077.038-.04.077-.04.116-.078h.038c.04-.039.078-.077.117-.077h.038c.04-.039.078-.078.155-.116l7.71-7.704c.736-.735.736-1.935 0-2.71-.736-.735-1.937-.735-2.712 0L20.38 29.42v-9.406h14.334a1.9 1.9 0 0 0 1.899-1.897C36.612 8.284 28.476.31 18.48.31zM4.262 16.18C5.23 9.407 11.235 4.143 18.48 4.143S31.691 9.406 32.66 16.18H4.262z" fill="url(#b)" fill-rule="nonzero"/><path d="M20.379 4.258c6.353.852 11.39 5.73 12.28 11.923h-8.445a3.801 3.801 0 0 0-3.797 3.793h14.296a1.9 1.9 0 0 0 1.899-1.897c0-6.774-4.804-10.103-8.872-12-3.758-1.742-7.361-1.819-7.361-1.819z" fill="url(#c)"/><path d="M32.582 15.755c1.279 1.045 2.596 2.051 3.836 3.135.116-.232.194-.503.194-.813 0-6.774-4.804-10.103-8.872-12-3.758-1.742-7.361-1.819-7.361-1.819 6.198.813 11.157 5.536 12.203 11.497z" fill="url(#d)"/><path d="M32.35 16.18h-8.136a3.801 3.801 0 0 0-3.797 3.794h14.296c.581 0 1.124-.27 1.473-.697-1.279-1.045-2.558-2.051-3.836-3.096z" fill="url(#e)" opacity=".9"/><g fill="#203"><path d="M50.675 9.871h11.352v3.252h-7.942v4.103h7.942V20.4h-7.942v7.123h-3.449V9.87z"/><path d="M64.119 10.8c0-.62.194-1.161.62-1.548.387-.426.93-.62 1.51-.62.66 0 1.163.194 1.55.62.388.425.582.929.582 1.548 0 .62-.194 1.123-.582 1.51-.387.387-.93.619-1.55.619s-1.123-.194-1.549-.62c-.387-.386-.581-.928-.581-1.509zm.426 3.677h3.41v13.046h-3.41V14.477z" fill-rule="nonzero"/><path d="M70.628 14.477h3.293v2.013c.31-.774.775-1.355 1.433-1.703.62-.348 1.356-.542 2.17-.542.426 0 .852.039 1.24.155.387.077.697.232.968.348l-1.2 3.29a2.628 2.628 0 0 0-.737-.309 4.226 4.226 0 0 0-1.007-.116c-.853 0-1.55.232-2.054.697-.503.464-.775 1.277-.775 2.361v6.89h-3.331V14.477z"/><path d="M86.86 27.794c-1.045 0-2.014-.155-2.866-.504-.853-.348-1.589-.813-2.17-1.432a5.805 5.805 0 0 1-1.395-2.168c-.31-.813-.464-1.703-.464-2.67 0-.968.155-1.859.503-2.672.349-.813.814-1.548 1.434-2.167.62-.62 1.356-1.084 2.17-1.433a7.064 7.064 0 0 1 2.711-.542c.969 0 1.899.155 2.712.504.814.348 1.55.813 2.131 1.393a6.356 6.356 0 0 1 1.395 2.13c.348.812.503 1.702.503 2.67v1.239H83.141c.233.852.659 1.51 1.318 2.013.658.503 1.472.735 2.44.735.775 0 1.434-.155 1.976-.464.543-.31.969-.736 1.279-1.278l2.75 1.587a7.655 7.655 0 0 1-2.401 2.207c-1.008.542-2.209.852-3.642.852zm-.077-10.762c-.852 0-1.588.233-2.208.658-.62.465-1.046 1.045-1.317 1.82h6.973c-.232-.813-.62-1.433-1.24-1.858-.62-.426-1.355-.62-2.208-.62z" fill-rule="nonzero"/><path d="M94.493 14.477h2.17v-.464c0-1.045.077-1.936.27-2.671.194-.697.504-1.277.93-1.703.427-.426 1.008-.736 1.705-.89.736-.194 1.627-.272 2.673-.272h.853v3.058h-.543c-.58 0-1.046.04-1.394.078-.349.039-.62.155-.775.348-.194.155-.31.387-.349.697-.039.31-.077.697-.077 1.2v.62h3.138v2.98h-3.138v10.065h-3.332V17.458h-2.17v-2.98h.039z"/><path d="M110.765 27.794a7.26 7.26 0 0 1-2.75-.542c-.853-.349-1.55-.852-2.17-1.471a6.232 6.232 0 0 1-1.434-2.168c-.349-.813-.504-1.703-.504-2.632 0-.93.155-1.82.504-2.633s.814-1.548 1.434-2.167c.62-.62 1.356-1.084 2.17-1.433a7.114 7.114 0 0 1 2.75-.542c.968 0 1.86.194 2.712.542a7.244 7.244 0 0 1 2.208 1.433c.62.619 1.124 1.316 1.472 2.167a6.665 6.665 0 0 1 0 5.265 7.544 7.544 0 0 1-1.433 2.168 6.94 6.94 0 0 1-2.17 1.47 7.458 7.458 0 0 1-2.79.543zm.039-3.175c.503 0 .968-.077 1.394-.27a3.87 3.87 0 0 0 1.124-.775c.31-.31.581-.697.775-1.161.193-.426.27-.93.27-1.432 0-.504-.077-.968-.27-1.433-.194-.464-.426-.851-.775-1.16a3.87 3.87 0 0 0-1.124-.775c-.426-.194-.89-.271-1.394-.271-.504 0-.969.077-1.395.27a3.87 3.87 0 0 0-1.124.775c-.31.31-.58.697-.775 1.161a3.623 3.623 0 0 0-.27 1.433c0 .503.077 1.006.27 1.432.194.426.427.813.775 1.161.31.31.698.58 1.124.774.426.155.89.271 1.395.271z" fill-rule="nonzero"/><path d="M122.698 20.826l-4.61-6.349h3.95l2.752 3.871 2.75-3.87h3.913l-4.649 6.387 4.998 6.658h-4.03l-3.021-4.104-2.945 4.104h-4.029zM147.26 27.755c-1.782 0-3.293-.349-4.533-1.007-1.24-.658-2.247-1.548-3.099-2.67l1.743-1.394c1.356 2.129 3.294 3.174 5.812 3.174 1.356 0 2.402-.31 3.138-.929.697-.62 1.046-1.432 1.046-2.4 0-.58-.155-1.045-.426-1.432s-.659-.658-1.162-.93a7.962 7.962 0 0 0-1.628-.58c-.62-.155-1.278-.27-1.937-.426a39.633 39.633 0 0 1-2.053-.503 7.5 7.5 0 0 1-1.782-.774 3.787 3.787 0 0 1-1.279-1.316c-.348-.542-.503-1.239-.503-2.09 0-.659.155-1.317.426-1.897a4.647 4.647 0 0 1 1.2-1.549 7.229 7.229 0 0 1 1.86-1.045c.737-.27 1.55-.387 2.441-.387 1.55 0 2.828.271 3.874.852 1.046.58 1.976 1.316 2.751 2.283l-1.627 1.278a6.14 6.14 0 0 0-1.976-1.897c-.775-.464-1.782-.697-2.983-.697-1.356 0-2.325.271-2.945.852-.62.58-.93 1.277-.93 2.168 0 .542.117.967.35 1.277.232.349.58.62 1.007.813.426.194.93.387 1.472.503.581.116 1.162.271 1.82.426.698.155 1.395.31 2.132.503.736.194 1.394.465 1.975.852a4.227 4.227 0 0 1 1.434 1.432c.387.58.581 1.316.581 2.245 0 .697-.155 1.355-.426 1.975a4.69 4.69 0 0 1-1.24 1.664 6.776 6.776 0 0 1-1.937 1.161c-.775.31-1.627.465-2.596.465z"/><path d="M162.951 27.794c-1.046 0-1.976-.155-2.828-.504-.853-.348-1.589-.813-2.17-1.432a5.98 5.98 0 0 1-1.395-2.129c-.31-.813-.464-1.703-.464-2.67 0-.969.155-1.859.503-2.71.349-.814.814-1.549 1.434-2.168a6.426 6.426 0 0 1 2.17-1.433 6.92 6.92 0 0 1 2.711-.542c.969 0 1.821.155 2.635.504.813.348 1.51.774 2.092 1.393a6.59 6.59 0 0 1 1.395 2.09c.348.813.503 1.704.503 2.672v.89h-11.545c.077.62.232 1.2.504 1.703.27.503.62.968 1.046 1.355.426.387.93.658 1.51.89.582.194 1.202.31 1.899.31 1.046 0 1.937-.232 2.634-.658.698-.426 1.279-1.045 1.744-1.858l1.705 1.006a7.45 7.45 0 0 1-2.48 2.439c-.969.58-2.13.852-3.603.852zm-.039-11.846c-.62 0-1.2.117-1.743.31a4.147 4.147 0 0 0-1.434.852 4.209 4.209 0 0 0-1.046 1.277 5.81 5.81 0 0 0-.58 1.626h9.452c-.155-1.239-.658-2.207-1.472-2.942-.852-.736-1.937-1.123-3.177-1.123z" fill-rule="nonzero"/><path d="M172.52 14.477h1.938v2.168c.464-.735 1.084-1.316 1.86-1.78.774-.465 1.665-.659 2.711-.659.852 0 1.627.117 2.325.388a4.598 4.598 0 0 1 1.743 1.16 5.543 5.543 0 0 1 1.124 1.859c.27.735.387 1.548.387 2.477v7.433h-2.015v-7.355c0-1.278-.348-2.284-1.007-3.058-.658-.775-1.666-1.123-2.944-1.123-.581 0-1.124.116-1.627.31-.504.193-.93.503-1.318.89a3.511 3.511 0 0 0-.852 1.355 4.978 4.978 0 0 0-.31 1.742v7.239h-1.976V14.477h-.039z"/><path d="M194.061 27.794c-.93 0-1.782-.155-2.596-.504a7.249 7.249 0 0 1-2.13-1.393c-.581-.62-1.085-1.316-1.434-2.168-.349-.813-.503-1.742-.503-2.748 0-1.007.154-1.897.503-2.749.349-.813.814-1.548 1.434-2.167a5.985 5.985 0 0 1 2.13-1.394c.814-.348 1.666-.503 2.596-.503.465 0 .93.038 1.434.155.465.116.93.27 1.356.503.426.232.813.464 1.2.813.35.31.66.658.93 1.084V8.439h1.976v19.045h-1.975V25.16c-.272.387-.582.774-.93 1.084-.349.31-.775.58-1.201.813a5.722 5.722 0 0 1-1.356.503 4.816 4.816 0 0 1-1.434.233zm.155-1.897c.698 0 1.356-.116 1.937-.387s1.124-.62 1.55-1.045a4.455 4.455 0 0 0 1.007-1.588c.233-.619.349-1.238.349-1.935 0-.658-.116-1.316-.349-1.936-.232-.619-.58-1.122-1.007-1.587a4.759 4.759 0 0 0-1.55-1.045c-.58-.27-1.24-.387-1.937-.387-.658 0-1.317.116-1.898.387a6.06 6.06 0 0 0-1.55 1.045 4.455 4.455 0 0 0-1.007 1.587 5.361 5.361 0 0 0-.349 1.936c0 .697.116 1.355.349 1.974.232.62.581 1.123 1.007 1.587.426.426.93.774 1.55 1.045.62.233 1.24.349 1.898.349z" fill-rule="nonzero"/></g></g></svg>