<svg height="512pt" viewBox="0 0 512.00109 512" width="512pt" xmlns="http://www.w3.org/2000/svg"><path d="m213.332031 512c38.636719 0 70.957031-27.539062 78.378907-64h-156.757813c7.425781 36.460938 39.746094 64 78.378906 64zm0 0"/><path d="m368 277.332031h-96c-5.953125 0-11.414062-3.304687-14.164062-8.574219-2.773438-5.269531-2.371094-11.625 1.023437-16.511718l78.589844-113.578125h-65.449219c-8.832031 0-16-7.167969-16-16s7.167969-16 16-16h96c5.953125 0 11.414062 3.304687 14.164062 8.574219 2.773438 5.269531 2.371094 11.628906-1.023437 16.511718l-78.589844 113.578125h65.449219c8.832031 0 16 7.167969 16 16s-7.167969 16-16 16zm0 0"/><path d="m496 128h-53.332031c-5.996094 0-11.480469-3.347656-14.230469-8.683594-2.753906-5.308594-2.261719-11.730468 1.214844-16.597656l35.265625-49.386719h-22.25c-8.832031 0-16-7.167969-16-16s7.167969-16 16-16h53.332031c5.996094 0 11.476562 3.351563 14.230469 8.683594 2.75 5.3125 2.261719 11.734375-1.21875 16.597656l-35.261719 49.386719h22.25c8.832031 0 16 7.167969 16 16s-7.167969 16-16 16zm0 0"/><path d="m413.417969 360.8125c-17.003907-14.378906-30.035157-32.300781-38.699219-52.160156-2.21875.320312-4.414062.679687-6.71875.679687h-96c-17.941406 0-34.238281-9.875-42.539062-25.789062-8.296876-15.765625-7.125-34.816407 3.113281-49.535157l43.820312-63.339843h-4.394531c-26.453125 0-48-21.546875-48-48s21.546875-48 48-48h33.300781c-20.074219-15.722657-44.246093-26.496094-70.632812-30.292969v-23.042969c0-11.796875-9.558594-21.332031-21.335938-21.332031-11.773437 0-21.332031 9.535156-21.332031 21.332031v23.042969c-72.257812 10.410156-128 72.554688-128 147.625v59.476562c0 42.21875-18.496094 82.070313-50.945312 109.503907-8.296876 7.105469-13.054688 17.429687-13.054688 28.351562 0 20.589844 16.746094 37.335938 37.332031 37.335938h352c20.589844 0 37.335938-16.746094 37.335938-37.335938 0-10.921875-4.757813-21.246093-13.25-28.519531zm0 0"/></svg>